<?xml version="1.0" encoding="UTF-8" standalone="no"?>
<svg
   xmlns:dc="http://purl.org/dc/elements/1.1/"
   xmlns:cc="http://creativecommons.org/ns#"
   xmlns:rdf="http://www.w3.org/1999/02/22-rdf-syntax-ns#"
   xmlns:svg="http://www.w3.org/2000/svg"
   xmlns="http://www.w3.org/2000/svg"
   xmlns:sodipodi="http://sodipodi.sourceforge.net/DTD/sodipodi-0.dtd"
   xmlns:inkscape="http://www.inkscape.org/namespaces/inkscape"
   sodipodi:docname="UrbanSolarHeatingAndConvection.svg"
   inkscape:version="1.0 (4035a4f, 2020-05-01)"
   id="svg8"
   version="1.1"
   viewBox="0 0 210 297"
   height="297mm"
   width="210mm">
  <defs
     id="defs2">
    <inkscape:path-effect
       fuse_tolerance="0"
       hide_knot="false"
       vertical_pattern="false"
       prop_units="false"
       tang_offset="0"
       normal_offset="0"
       spacing="0"
       scale_y_rel="false"
       prop_scale="1"
       copytype="single_stretched"
       pattern="M 0,5 C 0,2.24 2.24,0 5,0 7.76,0 10,2.24 10,5 10,7.76 7.76,10 5,10 2.24,10 0,7.76 0,5 Z"
       lpeversion="1"
       is_visible="true"
       id="path-effect853"
       effect="skeletal" />
  </defs>
  <sodipodi:namedview
     inkscape:window-maximized="0"
     inkscape:window-y="31"
     inkscape:window-x="25"
     inkscape:window-height="817"
     inkscape:window-width="1252"
     inkscape:snap-nodes="false"
     showgrid="false"
     inkscape:document-rotation="0"
     inkscape:current-layer="layer1"
     inkscape:document-units="mm"
     inkscape:cy="472.78538"
     inkscape:cx="402.38005"
     inkscape:zoom="1.2432572"
     inkscape:pageshadow="2"
     inkscape:pageopacity="0.0"
     borderopacity="1.0"
     bordercolor="#666666"
     pagecolor="#ffffff"
     id="base" />
  <metadata
     id="metadata5">
    <rdf:RDF>
      <cc:Work
         rdf:about="">
        <dc:format>image/svg+xml</dc:format>
        <dc:type
           rdf:resource="http://purl.org/dc/dcmitype/StillImage" />
        <dc:title></dc:title>
      </cc:Work>
    </rdf:RDF>
  </metadata>
  <g
     id="layer1"
     inkscape:groupmode="layer"
     inkscape:label="Layer 1">
    <text
       id="text835"
       y="40.477829"
       x="19.507389"
       style="font-style:normal;font-weight:normal;font-size:10.5833px;line-height:0;font-family:sans-serif;fill:#000000;fill-opacity:1;stroke:none;stroke-width:0.264583"
       xml:space="preserve"><tspan
         id="tspan837"
         style="font-size:6.35px;line-height:1.15;stroke-width:0.264583"
         y="40.477829"
         x="19.507389"
         sodipodi:role="line">Solar heating and convection from rooftops in</tspan><tspan
         id="tspan841"
         style="font-size:6.35px;line-height:1.15;stroke-width:0.264583"
         y="47.780327"
         x="19.507389"
         sodipodi:role="line">a crowded urban settlement</tspan></text>
    <text
       id="text845"
       y="45.842365"
       x="121.43349"
       style="font-style:normal;font-weight:normal;font-size:10.5833px;line-height:1.25;font-family:sans-serif;fill:#000000;fill-opacity:1;stroke:none;stroke-width:0.264583"
       xml:space="preserve"><tspan
         id="tspan847"
         style="stroke-width:0.264583"
         y="45.842365"
         x="121.43349"
         sodipodi:role="line" /></text>
    <path
       id="path855"
       d="m 35.600984,138.50246 c -2.484851,-2.56729 0.289509,-6.73625 -0.975368,-9.26601 -0.489432,-0.97886 -0.07257,-2.09588 -0.487686,-2.92611 -0.16256,-0.32512 -0.851183,-0.97537 -0.487685,-0.97537 0.355063,0 1.467548,0.6495 2.438424,0.48769 2.125477,-0.35425 6.599766,-1.22608 8.290642,-1.95074 1.14519,-0.4908 8.325514,-2.89123 9.26601,-1.95074 1.031486,1.03149 -0.487686,1.82439 -0.487686,3.41379 0,2.26897 1.222674,9.74677 0.487686,11.21675 -0.303681,0.60736 -0.975371,-2.12578 -0.975371,-2.43842 0,-2.24321 -0.06625,-4.23273 -0.487685,-6.3399 -0.09021,-0.45102 0.06189,-5.36453 0,-5.36453 -0.147614,0 -0.01868,1.73492 0.487685,0.97536 0.285152,-0.42772 0.179245,-1.0518 0.487685,-1.46305 0.600723,-0.80096 2.584892,-1.28762 3.413792,-1.95074 0.870442,-0.69635 1.879002,-2.40255 2.926109,-2.92611 0.533442,-0.26672 1.44744,-0.47207 1.950739,-0.97537 0.818313,-0.81831 1.378862,-2.88401 2.438423,-3.41379 0.145399,-0.0727 0.539092,-0.15422 0.487686,0 -0.185349,0.55605 -0.790022,0.90701 -0.975371,1.46305 -0.0727,0.2181 0.325125,-0.32512 0.487685,-0.48768 0.363498,-0.3635 0.964338,0.363 1.463056,0.48768 1.699683,0.42493 0.334494,-0.77467 2.438421,0.48769 0.848381,0.50903 2.688209,1.71284 3.413795,2.43842 0.597281,0.59728 0.684493,1.4317 1.463053,1.95074 0.604898,0.40327 1.436674,0.46131 1.950738,0.97537 0.257035,0.25703 0.230654,0.71834 0.487686,0.97537 0.925774,0.92578 2.597081,1.62171 3.413794,2.43842 0.16256,0.16257 0.487685,0.71759 0.487685,0.48769 0,-0.32512 -0.896517,-0.31542 -0.97537,0 -0.311656,1.24663 0,3.09925 0,4.38916 0,2.54902 -0.975371,4.8361 -0.975371,7.31527 0,0.81281 0,1.62562 0,2.43843 0,0.16256 0,0.65024 0,0.48768 0,-2.17397 -0.102812,-0.12784 0.975371,-3.90148 0.511593,-1.79058 -0.487686,-3.95989 -0.487686,-5.85221 0,-0.16257 -0.0727,0.34228 0,0.48768 1.014815,2.02963 -0.03367,-0.52135 0.975371,0.48769 0.114948,0.11495 -0.114948,0.37273 0,0.48768 0.252741,0.25274 3.188827,-1.37307 3.413792,-1.46305 0.95668,-0.38267 8.861337,-0.89236 9.26601,-0.48769 0.574124,0.57413 0.206988,0.97537 1.463055,0.97537 0.963727,0 1.829679,-1.27974 2.438424,-0.97537 0.634535,0.31727 0.975368,6.68011 0.975368,7.80296 0,0.16256 -0.16256,0.48768 0,0.48768 0.650245,0 0,-1.30049 0,-1.95074 0,-0.65024 0,1.3005 0,1.95074 0,0.16256 -0.16256,0.48769 0,0.48769 0.514064,0 -0.386868,-0.95898 -0.487685,-1.46306 -0.404585,-2.02293 0.910891,-3.73619 0.487685,-5.85221 -0.325123,-0.81281 -0.650245,-1.62562 -0.975368,-2.43843 -0.162562,0 -0.414986,0.1454 -0.487685,0 -0.254976,-0.50995 -0.301255,-3.78665 0,-4.38916 0.486804,-0.97361 1.272135,-0.14838 1.950738,-0.48768 1.127128,-0.56357 0.726647,-1.21434 1.463054,-1.95074 0.869309,-0.86931 3.924741,0.56508 4.389161,0.48768 0.72152,-0.12025 4.48135,-0.28994 4.87685,-0.48768 0.1454,-0.0727 -0.16256,-0.48769 0,-0.48769 2.73566,0 -2.5962,1.5025 1.46305,0.48769 2.53234,-0.63309 -0.52062,-0.48769 1.95074,-0.48769 1.31583,0 2.66497,-0.48768 3.90148,-0.48768 0.2299,0 0.38487,0.69331 0.48769,0.48768 0.14539,-0.2908 -0.1454,-0.68457 0,-0.97537 0.10281,-0.20562 0.71758,-0.48768 0.48768,-0.48768 -0.10485,0 0.48768,1.62586 0.48768,1.95074 0,1.62561 0,3.25123 0,4.87684 0,0.86029 0.14462,8.77833 0.48769,8.77833 0.32512,0 -0.2299,-0.74547 0,-0.97537 0.11495,-0.11495 0.37274,0.11495 0.48768,0 1.11153,-1.11152 -2.17299,-6.11765 -0.97537,-7.31527 0.16257,-0.16256 0.25779,0.48768 0.48769,0.48768 0.22989,0 0.25779,-0.48768 0.48768,-0.48768 0.16257,0 -0.11494,0.37274 0,0.48768 0.11495,0.11495 0.37274,-0.11494 0.48769,0 0.29145,0.29146 -0.52713,0.97537 0.48768,0.97537 0.51407,0 0.95599,-0.40317 1.46306,-0.48768 0.80175,-0.13363 1.86368,0.57474 2.43842,0 0.11495,-0.11495 -0.1454,-0.41499 0,-0.48769 0.12971,-0.0648 2.43842,0.0454 2.43842,0 0,-0.16256 -0.48768,0.16257 -0.48768,0 0,-0.92363 2.42795,-3.40332 2.92611,-3.90147 0.64216,-0.64216 1.45296,-1.94065 1.95074,-2.43843 0.25703,-0.25703 0.71833,-0.23065 0.97537,-0.48768 0.20081,-0.20081 1.20487,-1.46306 1.46305,-1.46306 0.16256,0 -0.16256,0.48769 0,0.48769 0.16256,0 0,-0.65025 0,-0.48769 0,0.48769 -0.34484,1.11821 0,1.46306 0.80664,0.80664 2.33411,1.10316 3.41379,1.46305 0.51224,0.17075 0.86434,1.40754 0.97537,1.46306 0.38472,0.43619 1.02686,-0.2181 1.46306,0 0.66284,0.33142 1.28789,1.13163 1.95073,1.46305 0.40972,0.20486 2.17034,0.2196 2.43843,0.48768 1.65323,1.65324 0,5.92616 0,7.80296 0,0.65025 -0.65025,1.95074 0,1.95074 0.16256,0 -0.11495,-0.37274 0,-0.48769 0.16638,-0.16638 2.10375,-0.86381 2.43842,-0.97537 1.2498,-0.4166 3.22119,0.58399 4.38916,0 2.37035,-1.18517 3.74441,-1.46305 6.33991,-1.46305 0.97537,0 1.95074,0 2.9261,0 0.32513,0 0.97538,0.32512 0.97538,0 0,-0.16256 -0.60264,0.11495 -0.48769,0 0.3635,-0.3635 1.96177,-0.61236 1.46305,-0.48768 -0.80415,0.20103 -1.62561,0.32512 -2.43842,0.48768"
       style="fill:none;stroke:#000000;stroke-width:0.264583px;stroke-linecap:butt;stroke-linejoin:miter;stroke-opacity:1" />
    <path
       id="path857"
       d="m 178.49261,50.719211 c 0.98657,0.592371 -1.46306,3.325075 -1.46306,3.901477 0,0.229897 0.41499,0.269587 0.48769,0.487686 0.28234,0.847026 -0.39386,2.138391 0,2.926109 0.20562,0.41125 0.72032,0.592796 0.97537,0.975368 1.41999,2.129986 -0.21615,-0.16075 0.48768,1.950738 0.0608,0.182277 3.86431,3.551576 4.38917,3.90148 1.4047,0.936471 3.80204,-0.198877 4.38916,0.975368 0.64676,1.293527 1.66668,0 2.43842,0 1.42699,0 -0.0952,0.683913 0.48769,0.97537 0.53055,0.265277 2.98882,-0.912656 2.92611,-0.97537 -0.21101,-0.211008 -0.97537,1.427472 -0.97537,0"
       style="fill:none;stroke:#000000;stroke-width:0.264583px;stroke-linecap:butt;stroke-linejoin:miter;stroke-opacity:1" />
    <path
       id="path859"
       d="m 169.2266,58.522165 c -3.97146,3.7509 -8.19766,7.983993 -11.70444,12.192119 -2.0645,2.477405 -2.9261,2.440173 -2.9261,2.438424 0,-0.459793 0.65024,-0.650245 0.97537,-0.975368"
       style="fill:none;stroke:#000000;stroke-width:0.264583px;stroke-linecap:butt;stroke-linejoin:miter;stroke-opacity:1" />
    <path
       id="path863"
       d="m 176.54187,68.275861 c -9.05194,7.354699 -5.43323,3.970181 -11.21675,9.753695 -0.31355,0.313549 -1.63719,1.149506 -1.95074,1.463053 -0.0703,0.07028 -1.31729,2.292667 0,0.975371"
       style="fill:none;stroke:#000000;stroke-width:0.264583px;stroke-linecap:butt;stroke-linejoin:miter;stroke-opacity:1" />
    <path
       id="path871"
       d="m 171.66502,64.374384 c -1.30369,0.740248 -2.82831,1.365263 -3.90147,2.438423 -2.11611,2.116101 -6.17304,4.543121 -7.31528,6.827586 -0.32659,0.653183 -1.16343,0.675752 -1.46305,0.975368 -0.0315,0.03152 -1.67531,2.162996 -0.48768,0.975371"
       style="fill:none;stroke:#000000;stroke-width:0.264583px;stroke-linecap:butt;stroke-linejoin:miter;stroke-opacity:1" />
    <path
       id="path873"
       d="m 183.85714,71.20197 c -0.50366,-0.32221 -16.09359,11.462353 -16.09359,12.192119"
       style="fill:none;stroke:#000000;stroke-width:0.264583px;stroke-linecap:butt;stroke-linejoin:miter;stroke-opacity:1" />
    <path
       id="path875"
       d="m 177.02955,86.80788 c -1.30049,0.325123 -2.64631,0.504682 -3.90147,0.975371 -0.34036,0.127632 0.13504,0.887206 0.48768,0.975368 1.49771,0.374428 3.35123,-0.187682 3.90148,1.463056 1.4558,4.367395 -4.38916,0.554241 -4.38916,1.950738"
       style="fill:none;stroke:#000000;stroke-width:0.264583px;stroke-linecap:butt;stroke-linejoin:miter;stroke-opacity:1" />
    <path
       id="path877"
       d="m 182.88177,89.733989 c -2.41196,4.619088 1.78,3.267583 2.92611,0.975368 0.0727,-0.145399 -0.41499,-0.145399 -0.48769,0 -0.39989,0.799793 -0.0186,2.907483 0.48769,3.413795"
       style="fill:none;stroke:#000000;stroke-width:0.264583px;stroke-linecap:butt;stroke-linejoin:miter;stroke-opacity:1" />
    <path
       id="path879"
       d="m 188.2463,89.733989 c 0.16257,0.650246 -0.0485,2.352895 0.48769,1.950739 0.99042,-0.74282 0.24186,-3.210261 1.46305,-3.413792 2.37244,-0.395409 1.25817,6.466874 0.97537,7.315269"
       style="fill:none;stroke:#000000;stroke-width:0.264583px;stroke-linecap:butt;stroke-linejoin:miter;stroke-opacity:1" />
    <path
       id="path881"
       d="m 59.985221,110.70443 c 0.884349,-2.37417 1.208575,-4.90323 1.950739,-7.31527 0.6869,-2.23243 2.36407,-4.347595 1.950738,-6.827585 -0.07227,-0.433607 -1.699056,-4.245345 -1.950738,-4.389162 -6.090637,-3.480366 -1.002239,0.478727 -3.901477,-0.487685 -1.038037,-0.346012 -0.03449,-0.783267 -0.487685,-1.463053 -0.878547,-1.317818 -2.268628,0.381719 -3.413795,0 -1.411994,-0.470665 -0.434787,-3.46669 -3.413792,-0.487686 -1.903304,1.903304 0.112888,0.261911 -0.487685,1.463054 -0.262123,0.524245 -0.790019,0.907007 -0.975368,1.463055 -0.867719,2.603151 4.284538,3.692229 5.36453,5.852216 0.1454,0.290798 -0.145399,0.68457 0,0.97537 0.234263,0.468522 2.354565,-0.403825 2.438424,-0.487685 0.991084,-0.991084 0.202078,-2.271366 0.487686,-3.413794 0.07209,-0.288362 1.241044,-2.216415 0,-0.975368"
       style="fill:none;stroke:#000000;stroke-width:0.264583px;stroke-linecap:butt;stroke-linejoin:miter;stroke-opacity:1" />
    <path
       id="path883"
       d="m 64.374384,109.72906 c 0,-1.30049 -0.136142,-2.60813 0,-3.90147 0.06246,-0.59339 2.067541,-11.606601 2.926109,-12.679809 -0.147135,-1.363403 1.830287,-1.342602 2.438423,-1.950738 2.492254,-2.492254 -2.044853,0.68019 1.463054,-1.950739 2.307545,-1.730658 4.810521,-1.613651 6.827586,0 0.777467,0.621975 2.311201,1.166204 2.438424,2.438424 0.457821,4.578215 -2.2762,6.827586 -6.339901,6.827586 -0.487686,0 -1.010251,0.18112 -1.463056,0 -2.27887,-0.911548 0.116943,-3.296851 -0.975368,-4.389162 -0.114948,-0.114949 -0.487685,-0.162563 -0.487685,0 0,0.162562 0.325122,0 0.487685,0 0.650245,0 1.300493,0 1.950738,0"
       style="fill:none;stroke:#000000;stroke-width:0.264583px;stroke-linecap:butt;stroke-linejoin:miter;stroke-opacity:1" />
    <path
       id="path885"
       d="m 62.423645,85.832512 c -0.650248,-2.275863 -1.527328,-4.498834 -1.950738,-6.827586 -0.725229,-3.988755 0.896336,-7.397003 -4.389163,-6.339903 -0.04361,0.0087 -1.813239,-0.137499 -1.950741,0 -0.392456,0.392459 0.440074,0.83253 0.487685,0.97537 0.154221,0.462659 0.344845,1.118209 0,1.463054 -0.114948,0.114948 -0.487685,-0.16256 -0.487685,0 0,1.05298 1.950741,2.149983 1.950741,2.926109 0,0.162562 -0.414985,-0.145399 -0.487685,0 -0.145399,0.290798 0,0.650245 0,0.97537"
       style="fill:none;stroke:#000000;stroke-width:0.264583px;stroke-linecap:butt;stroke-linejoin:miter;stroke-opacity:1" />
    <path
       id="path887"
       d="m 66.325122,83.394089 c -2.552128,-6.391241 0.84002,-12.544454 5.364533,-17.068967 0.821928,-0.821928 0.881732,-2.147763 1.463053,-2.438424 2.09777,-1.048885 2.926109,4.597689 2.926109,5.364533 0,0.988822 -0.247859,1.966809 -0.487685,2.926109 -0.756653,3.026606 -2.47455,-2.402297 -3.901477,-0.97537"
       style="fill:none;stroke:#000000;stroke-width:0.264583px;stroke-linecap:butt;stroke-linejoin:miter;stroke-opacity:1" />
    <path
       id="path889"
       d="m 110.70443,117.04433 c -0.38583,-1.97469 0.67351,-5.08579 -0.48768,-6.82758 -1.81232,-2.71848 -0.29024,-6.7348 0.97537,-9.26601 0.44891,-0.89784 1.01413,-0.0775 1.46305,-0.975373 0.52407,-1.048134 0,-4.17376 0,-5.36453 0,-1.190591 0.80645,-1.651056 0.48769,-2.926109 -0.0986,-0.394192 -3.65526,-5.118312 -1.95074,-3.413792 0.3635,0.363498 0.32512,0.975368 0.48768,1.463053"
       style="fill:none;stroke:#000000;stroke-width:0.264583px;stroke-linecap:butt;stroke-linejoin:miter;stroke-opacity:1" />
    <path
       id="path891"
       d="m 116.55665,113.63054 c -2.77792,-1.38896 -2.99908,-0.6912 -0.48769,-4.87685 0.30156,-0.50259 1.11138,-0.50647 1.46306,-0.97537 0.78029,-1.04039 -0.45663,-2.68378 0,-3.90147 0.2058,-0.54881 1.0486,-0.56092 1.46305,-0.97537 1.92425,-1.92425 3.26176,-3.597408 4.38916,-5.852219 0.5346,-1.0692 -2.0694,-2.675761 -2.43842,-3.413795 -0.69637,-1.392745 -0.43597,-2.977819 -0.48768,-2.926109 -0.41446,0.414454 -0.56092,1.048602 -0.97537,1.463056 0.32512,-1.788177 0.59455,-3.587382 0.97537,-5.364531 0.13082,-0.610487 0.54194,-2.348212 0.97537,-2.926109 0.57097,-0.761298 4.06454,-3.413033 4.38916,-2.926108 0.4856,0.728394 0.48977,1.710029 0.97537,2.438424 1.14965,1.724475 1.46224,-0.0049 1.95074,2.926108 0.55923,3.355389 -3.55417,5.224159 -5.85222,2.926108"
       style="fill:none;stroke:#000000;stroke-width:0.264583px;stroke-linecap:butt;stroke-linejoin:miter;stroke-opacity:1" />
    <path
       id="path893"
       d="m 112.16749,80.955665 c -1.13793,-0.325123 -2.23382,-1.066139 -3.4138,-0.975371 -1.08728,0.08364 -1.92378,1.033487 -2.9261,1.463053 -0.29884,0.128075 -0.74548,-0.229896 -0.97538,0 -0.89326,0.893266 0.66401,9.110329 1.95074,9.753696 0.37211,0.186049 2.72645,0.06656 2.92611,0 0.63316,-0.211051 0.52447,-5.888998 1.46306,-6.827587"
       style="fill:none;stroke:#000000;stroke-width:0.264583px;stroke-linecap:butt;stroke-linejoin:miter;stroke-opacity:1" />
    <path
       id="path895"
       d="m 118.0197,82.418718 c 0.48769,-2.113301 0.60871,-4.346421 1.46306,-6.339901 2.38647,-5.568439 9.02514,-5.740699 7.80295,-1.463056 -0.59652,2.087841 -0.88917,2.309122 -1.95074,3.90148 -1.30981,1.964714 -1.12861,1.964714 -2.43842,0 -1.06554,-1.598313 -0.97537,-0.87693 -0.97537,-1.950738"
       style="fill:none;stroke:#000000;stroke-width:0.264583px;stroke-linecap:butt;stroke-linejoin:miter;stroke-opacity:1" />
    <path
       id="path911"
       d="m 79.950589,72.65685 c 0.187019,0.561057 0.463831,1.099812 0.561057,1.683171 0.09224,0.553423 0,1.122113 0,1.68317 0,0.374039 -0.06149,0.753166 0,1.122114 0.03437,0.206248 0.280527,0.351962 0.280527,0.561057 0,0.826582 -0.402174,-0.233355 -0.280527,-0.841584 0.07575,-0.378759 0.603184,-1.963701 1.122114,-1.963701 0.07058,0 1.402641,2.29901 1.402641,2.524755 0,0.187021 -0.280527,-0.09351 -0.280527,-0.280527"
       style="fill:none;stroke:#000000;stroke-width:0.264583px;stroke-linecap:butt;stroke-linejoin:miter;stroke-opacity:1" />
    <path
       id="path913"
       d="m 85.561156,74.901077 c -0.280527,0.467548 -0.626801,0.901481 -0.841584,1.402644 -0.817319,1.907077 3.32885,0.02611 2.244227,-0.841587 -0.393218,-0.314573 -0.935095,-0.374038 -1.402643,-0.561057 z"
       style="fill:none;stroke:#000000;stroke-width:0.264583px;stroke-linecap:butt;stroke-linejoin:miter;stroke-opacity:1" />
    <path
       id="path915"
       d="m 88.36644,70.132095 c 1.607278,6.429108 0.463712,0.698193 0.841584,5.610569 0.03657,0.475401 0.28053,0.925835 0.28053,1.402641 0,0.108066 -0.28053,0.669123 -0.28053,0.561057 0,-0.374039 0,-0.748075 0,-1.122114"
       style="fill:none;stroke:#000000;stroke-width:0.264583px;stroke-linecap:butt;stroke-linejoin:miter;stroke-opacity:1" />
    <path
       id="path917"
       d="m 86.683269,73.217907 c 1.730008,-0.592505 2.825817,-0.561057 4.488456,-0.561057"
       style="fill:none;stroke:#000000;stroke-width:0.264583px;stroke-linecap:butt;stroke-linejoin:miter;stroke-opacity:1" />
    <path
       id="path919"
       d="m 85.841685,81.63376 c -1.925997,-2.168078 -4.05457,0.306713 -3.085811,2.244225 0.455917,0.911839 2.130769,-0.711917 2.244225,-0.841584 0.35905,-0.410342 0.353901,-1.646484 0.841586,-1.402641 0.508747,0.254373 -0.280529,1.114375 -0.280529,1.683168 0,0.197914 0.841586,1.034889 0.841586,0.28053"
       style="fill:none;stroke:#000000;stroke-width:0.264583px;stroke-linecap:butt;stroke-linejoin:miter;stroke-opacity:1" />
    <path
       id="path921"
       d="m 88.085913,81.63376 c 0.878419,2.049648 0.841584,1.251551 0.841584,2.244225"
       style="fill:none;stroke:#000000;stroke-width:0.264583px;stroke-linecap:butt;stroke-linejoin:miter;stroke-opacity:1" />
    <path
       id="path925"
       d="m 91.732781,84.439042 c -2.589514,-0.420418 -1.30439,-2.433616 0,-3.085812 0.535718,-0.267859 2.436427,0.28053 1.122114,0.28053"
       style="fill:none;stroke:#000000;stroke-width:0.264583px;stroke-linecap:butt;stroke-linejoin:miter;stroke-opacity:1" />
    <path
       id="path927"
       d="m 83.597458,91.171725 c -0.09351,-0.467548 -0.14954,-0.944182 -0.28053,-1.402644 -0.08307,-0.290735 -0.67863,-1.683168 0.28053,-1.683168 0.337153,0 0.521734,0.454438 0.841584,0.561057 0.177422,0.05914 0.428815,-0.132244 0.561057,0 0.06612,0.06612 0,0.187018 0,0.280527"
       style="fill:none;stroke:#000000;stroke-width:0.264583px;stroke-linecap:butt;stroke-linejoin:miter;stroke-opacity:1" />
    <path
       id="path929"
       d="m 86.402742,88.36644 c 0.187018,1.122114 0.374037,2.244228 0.561057,3.366341"
       style="fill:none;stroke:#000000;stroke-width:0.264583px;stroke-linecap:butt;stroke-linejoin:miter;stroke-opacity:1" />
    <path
       id="path933"
       d="m 91.171725,87.805383 c -0.200991,-0.527611 -3.525388,0.121484 -2.524755,1.122114 0.187018,0.187018 0.935093,-0.187018 1.122111,0 0.06612,0.06612 -0.06612,0.214408 0,0.280527 0.140266,0.140266 0.701323,-0.140263 0.841587,0 0.06612,0.06612 -0.04182,0.196892 0,0.28053 0.583745,1.167492 -0.01937,-0.299895 0.561057,0.280527 0.4295,0.429503 -1.45673,1.068025 -1.963701,0.561057"
       style="fill:none;stroke:#000000;stroke-width:0.264583px;stroke-linecap:butt;stroke-linejoin:miter;stroke-opacity:1" />
    <path
       id="path935"
       d="m 94.257536,87.805383 c -0.372938,0.294915 -0.280527,5.190109 -0.280527,2.805285"
       style="fill:none;stroke:#000000;stroke-width:0.264583px;stroke-linecap:butt;stroke-linejoin:miter;stroke-opacity:1" />
    <path
       id="path937"
       d="m 96.501764,89.208024 c 0,0.374039 -0.07336,1.48889 0,1.122114 0.166063,-0.830321 -0.09816,-1.767385 0.280527,-2.524755 0.172423,-0.344844 0.744053,-0.204914 1.122114,-0.280527 0.183388,-0.03668 0.428815,-0.132244 0.561056,0 0.247825,0.247822 -0.07311,1.59816 0,1.963698 0.03535,0.176739 0.454285,1.055129 0.28053,1.402641 -0.381368,0.762735 -0.561057,-0.227936 -0.561057,-0.561057"
       style="fill:none;stroke:#000000;stroke-width:0.264583px;stroke-linecap:butt;stroke-linejoin:miter;stroke-opacity:1" />
    <path
       id="path939"
       d="m 101.55127,88.36644 c -1.04497,-2.61511 -2.200478,0.907203 -1.683165,1.683171 0.130836,0.196257 1.920635,-0.02215 1.963695,-0.28053 0.0784,-0.470318 -0.49376,-1.82911 -0.28053,-1.402641 0.35248,0.704961 1.08413,4.079351 0.84159,5.049512 -0.1134,0.453586 -0.75702,0.549511 -1.12211,0.841584 -0.41306,0.330444 -0.62029,1.289389 -1.12212,1.122114 -0.645822,-0.215276 -0.256609,-1.35481 -0.561055,-1.963698 -0.166616,-0.333235 -1.400032,0.838973 -0.561057,0"
       style="fill:none;stroke:#000000;stroke-width:0.264583px;stroke-linecap:butt;stroke-linejoin:miter;stroke-opacity:1" />
    <path
       id="path941"
       d="m 79.592674,117.04805 c -0.283755,-0.0709 -0.558773,-0.21282 -0.851259,-0.21282 -0.141878,0 0,0.28376 0,0.42563 0,0.17052 -0.13588,1.14101 0,1.27689 0.429797,0.4298 1.198885,-0.29082 1.276887,-0.21281 0.05016,0.0502 -0.05016,0.16265 0,0.21281 0.05016,0.0502 0.162655,-0.0502 0.212815,0 0.840737,0.84074 -0.322591,0.93191 -0.851258,1.06408 -0.978156,0.24453 -0.04828,0.21281 -0.638444,0.21281"
       style="fill:none;stroke:#000000;stroke-width:0.264583px;stroke-linecap:butt;stroke-linejoin:miter;stroke-opacity:1" />
    <path
       id="path943"
       d="m 82.146449,114.9199 c 0.763468,0.784 -0.09328,2.27394 0.212814,3.19222 0.06922,0.20765 0.349822,0.15161 0.212815,0.42563 -0.179101,0.3582 -0.212815,0.41363 -0.212815,0.85126 0,0.28375 0.200645,0.65062 0,0.85126 -0.05016,0.0502 -0.162652,-0.0502 -0.212814,0 -0.05016,0.0502 0,0.28375 0,0.21281 0,-0.14187 0,-0.28375 0,-0.42562"
       style="fill:none;stroke:#000000;stroke-width:0.264583px;stroke-linecap:butt;stroke-linejoin:miter;stroke-opacity:1" />
    <path
       id="path945"
       d="m 81.295191,117.04805 c 0.966089,0.45646 1.46525,0 2.34096,0 0.141877,0 0.425629,0.14188 0.425629,0 0,-0.15862 -0.313465,0.10065 -0.425629,0.21281"
       style="fill:none;stroke:#000000;stroke-width:0.264583px;stroke-linecap:butt;stroke-linejoin:miter;stroke-opacity:1" />
    <path
       id="path947"
       d="m 85.551483,118.11212 c -1.222071,-0.42307 -2.392249,-0.0949 -2.128147,1.48971 0.119893,0.71935 1.406564,-0.32587 1.489704,-0.42563 0.264803,-0.31777 0.345956,-1.35656 0.638443,-1.06408 0.451447,0.45145 -0.638443,1.91534 0,1.91534 0.224327,0 0.01151,-0.63845 -0.212815,-0.63845"
       style="fill:none;stroke:#000000;stroke-width:0.264583px;stroke-linecap:butt;stroke-linejoin:miter;stroke-opacity:1" />
    <path
       id="path949"
       d="m 88.318074,117.89931 c -1.543597,-0.77102 -1.966838,-0.0962 -1.702517,1.4897 0.0318,0.1908 1.397693,-0.14961 1.489702,-0.42563 0.114385,-0.34315 0.212815,-1.42579 0.212815,-1.06407 0,0.57192 -0.351528,1.14767 -0.212815,1.70252 0.143325,0.5733 0.510038,1.53369 0.212815,2.12814 -0.907404,1.81481 -1.261544,-0.21281 -1.702517,-0.21281 -0.0831,0 -2.10158,1.2636 -0.85126,0.63844"
       style="fill:none;stroke:#000000;stroke-width:0.264583px;stroke-linecap:butt;stroke-linejoin:miter;stroke-opacity:1" />
    <path
       id="path951"
       d="m 89.594961,117.89931 c -1.241419,-0.74485 0.496568,1.4897 0,1.4897 -0.347768,0 -0.512061,-2.12815 1.489702,-2.12815 0.0036,0 0.327097,0.89851 0.42563,1.48971 0.03041,0.18247 0.378802,1.1109 0.212815,1.27689 -0.373134,0.37313 -0.322307,-0.20665 -0.212815,-0.42563"
       style="fill:none;stroke:#000000;stroke-width:0.264583px;stroke-linecap:butt;stroke-linejoin:miter;stroke-opacity:1" />
    <path
       id="path953"
       d="m 94.702512,117.68649 c -1.872554,0 -1.915332,-0.5618 -1.915332,1.48971 0,1.15396 1.347616,-0.449 1.489702,-0.63845 0.190347,-0.2538 0.201303,-1.07558 0.42563,-0.85126 0.300967,0.30097 -0.06019,0.85554 0,1.27689 2.04e-4,0.001 0.840116,0.85126 0.638445,0.85126 -0.100322,0 -0.141877,-0.14188 -0.212815,-0.21281"
       style="fill:none;stroke:#000000;stroke-width:0.264583px;stroke-linecap:butt;stroke-linejoin:miter;stroke-opacity:1" />
    <path
       id="path955"
       d="m 96.405029,118.11212 c -0.39693,-2.8084 1.283685,-0.81728 1.489702,0.21282 0.11543,0.57715 -0.101933,2.6736 -0.638442,1.06407"
       style="fill:none;stroke:#000000;stroke-width:0.264583px;stroke-linecap:butt;stroke-linejoin:miter;stroke-opacity:1" />
    <path
       id="path957"
       d="m 99.384433,114.06864 c -0.281225,1.39435 0.446601,3.12931 0,4.46911 -0.09836,0.29509 -0.354695,0.85126 -0.212814,0.85126 0.158623,0 -0.100651,-0.31346 -0.212813,-0.42563"
       style="fill:none;stroke:#000000;stroke-width:0.264583px;stroke-linecap:butt;stroke-linejoin:miter;stroke-opacity:1" />
    <path
       id="path959"
       d="m 97.681916,116.83523 c 0.730806,0.52775 3.135704,-1.12059 3.830664,-0.42562 0.0502,0.0502 -0.0709,0.21281 0,0.21281 0.0709,0 0,-0.14188 0,-0.21281"
       style="fill:none;stroke:#000000;stroke-width:0.264583px;stroke-linecap:butt;stroke-linejoin:miter;stroke-opacity:1" />
    <path
       id="path961"
       d="m 83.848966,123.6453 c -1.982862,-1.31063 -2.289546,2.79349 -0.851258,2.55378 0.577207,-0.0962 2.048381,-1.43642 1.702517,-2.12815 -0.141877,-0.28375 -0.774316,-0.7334 -0.851259,-0.42563 -0.151284,0.60514 1.064074,1.61087 1.064074,2.34096"
       style="fill:none;stroke:#000000;stroke-width:0.264583px;stroke-linecap:butt;stroke-linejoin:miter;stroke-opacity:1" />
    <path
       id="path967"
       d="m 85.977112,124.28375 c 0.123923,-0.002 0.274117,2.12814 0.42563,2.12814 0.141875,0 -0.07094,-0.21281 -0.212815,-0.21281"
       style="fill:none;stroke:#000000;stroke-width:0.264583px;stroke-linecap:butt;stroke-linejoin:miter;stroke-opacity:1" />
    <path
       id="path969"
       d="m 88.105259,126.19908 c -0.247226,-0.9889 -0.212815,-0.55878 -0.212815,-1.27689 0,-0.65429 0.100801,-1.16487 0.42563,-1.4897 0.243525,-0.24353 1.488096,0.21442 1.276887,0.42563 -0.137818,0.13782 -0.449275,-0.21282 -0.638444,-0.21282"
       style="fill:none;stroke:#000000;stroke-width:0.264583px;stroke-linecap:butt;stroke-linejoin:miter;stroke-opacity:1" />
  </g>
</svg>
